<svg width="80" height="64" viewBox="0 0 80 64" fill="none" xmlns="http://www.w3.org/2000/svg">
<rect width="80" height="64" rx="16" fill="#353535"/>
<path d="M28 44V46C28 46.5667 27.8083 47.0417 27.425 47.425C27.0417 47.8083 26.5667 48 26 48H24C23.4333 48 22.9583 47.8083 22.575 47.425C22.1917 47.0417 22 46.5667 22 46V30L26.2 18C26.4 17.4 26.7583 16.9167 27.275 16.55C27.7917 16.1833 28.3667 16 29 16H51C51.6333 16 52.2083 16.1833 52.725 16.55C53.2417 16.9167 53.6 17.4 53.8 18L58 30V46C58 46.5667 57.8083 47.0417 57.425 47.425C57.0417 47.8083 56.5667 48 56 48H54C53.4333 48 52.9583 47.8083 52.575 47.425C52.1917 47.0417 52 46.5667 52 46V44H28ZM27.6 26H52.4L50.3 20H29.7L27.6 26ZM31 38C31.8333 38 32.5417 37.7083 33.125 37.125C33.7083 36.5417 34 35.8333 34 35C34 34.1667 33.7083 33.4583 33.125 32.875C32.5417 32.2917 31.8333 32 31 32C30.1667 32 29.4583 32.2917 28.875 32.875C28.2917 33.4583 28 34.1667 28 35C28 35.8333 28.2917 36.5417 28.875 37.125C29.4583 37.7083 30.1667 38 31 38ZM49 38C49.8333 38 50.5417 37.7083 51.125 37.125C51.7083 36.5417 52 35.8333 52 35C52 34.1667 51.7083 33.4583 51.125 32.875C50.5417 32.2917 49.8333 32 49 32C48.1667 32 47.4583 32.2917 46.875 32.875C46.2917 33.4583 46 34.1667 46 35C46 35.8333 46.2917 36.5417 46.875 37.125C47.4583 37.7083 48.1667 38 49 38Z" fill="#3FE56C"/>
</svg>
